<?xml version="1.0" encoding="UTF-8" standalone="no"?><!DOCTYPE svg PUBLIC "-//W3C//DTD SVG 1.1//EN" "http://www.w3.org/Graphics/SVG/1.1/DTD/svg11.dtd"><svg width="100%" height="100%" viewBox="0 0 8000 4500" version="1.1" xmlns="http://www.w3.org/2000/svg" xmlns:xlink="http://www.w3.org/1999/xlink" xml:space="preserve" xmlns:serif="http://www.serif.com/" style="fill-rule:evenodd;clip-rule:evenodd;stroke-linejoin:round;stroke-miterlimit:2;"><path d="M1773.1,2377.62c-28.75,-35.886 -67.607,-65.942 -116.571,-90.169c-48.965,-24.226 -102.207,-41.215 -159.728,-50.967c-57.52,-9.752 -116.525,-14.106 -177.015,-13.064c-179.277,5.412 -352.392,-21.96 -519.345,-82.114c-14.208,-4.589 -30.678,-16.802 -49.408,-36.64c-18.731,-19.838 -29.958,-40.13 -33.682,-60.877c-13.656,-76.073 -14.599,-154.65 -2.83,-235.733c11.768,-81.082 33.656,-146.804 65.662,-197.165c51.091,-83.233 155.03,-166.584 311.818,-250.052c156.788,-83.468 339.349,-143.9 547.684,-181.297c124.483,-22.346 222.361,-30.1 293.635,-23.263c71.274,6.837 110.48,30.138 117.618,69.903c11.638,64.835 11.778,116.564 0.418,155.188c-11.359,38.624 -26.148,65.594 -44.368,80.911c-18.22,15.317 -51.047,37.495 -98.482,66.533c-51.047,28.794 -94.807,57.172 -131.28,85.135c-36.473,27.963 -67.267,54.013 -92.38,78.152c-25.113,24.139 -41.128,36.829 -48.044,38.071c-8.644,1.552 -13.587,-1.13 -14.829,-8.046c-2.638,-14.696 8.711,-39.71 34.046,-75.043c25.334,-35.332 58.46,-68.271 99.378,-98.816c43.045,-33.604 63.947,-53.864 62.706,-60.78c-2.018,-11.238 -29.392,-12.124 -82.124,-2.658c-159.926,28.707 -305.188,69.506 -435.788,122.395c-130.599,52.89 -230.826,109.697 -300.681,170.421c-69.854,60.725 -100.436,115.292 -91.746,163.702c5.431,30.256 25.48,48.742 60.148,55.457c34.667,6.716 109.964,14.838 225.891,24.367c115.927,9.53 220.96,25.476 315.098,47.84c134.968,31.096 237.906,70.172 308.815,117.229c70.909,47.056 112.803,106.46 125.683,178.21c8.845,49.274 5.842,100.898 -9.008,154.872c-14.85,53.974 -41.459,105.82 -79.827,155.539c-38.368,49.718 -84.971,93.33 -139.808,130.835c-47.124,30.767 -107.663,62.604 -181.619,95.51c-73.955,32.906 -155.131,62.87 -243.528,89.892c-88.396,27.022 -173.656,47.903 -255.78,62.645c-151.281,27.156 -275.514,34.733 -372.7,22.732c-97.186,-12.001 -150.977,-46.961 -161.374,-104.88c-4.655,-25.934 3.651,-69.141 24.918,-129.62c21.267,-60.48 51.372,-104.03 90.317,-130.652c34.534,-21.368 68.896,-36.237 103.087,-44.605c34.19,-8.368 52.216,-7.365 54.079,3.008c0.465,2.594 -0.366,5.42 -2.494,8.479c-2.128,3.058 -4.765,5.763 -7.913,8.112c-3.147,2.35 -6.295,4.7 -9.442,7.049c-16.048,10.019 -29.126,17.944 -39.233,23.774c-10.108,5.829 -18.054,11.271 -23.839,16.325c-5.785,5.054 -8.057,11.039 -6.816,17.955c3.259,18.153 94.36,11.169 273.303,-20.952c155.603,-27.931 282.103,-56.439 379.498,-85.522c97.396,-29.083 181.492,-65.148 252.289,-108.195c70.796,-43.047 132.66,-96.091 185.591,-159.131Z" style="fill:#8d0100;fill-rule:nonzero;"/><path d="M2568.09,1601.81c-21.612,3.879 -43.617,-0.648 -66.016,-13.581c-22.399,-12.933 -35.848,-31.935 -40.348,-57.004c-6.828,-38.036 3.722,-83.654 31.65,-136.852c27.928,-53.198 61.342,-83.289 100.243,-90.272c25.934,-4.655 48.981,-0.538 69.141,12.351c20.16,12.889 32.955,34.462 38.387,64.718c6.672,37.172 -3.679,81.415 -31.052,132.729c-27.374,51.314 -61.376,80.618 -102.005,87.911Zm192.22,563.793l16.991,94.659c-64.455,123.109 -128.064,218.628 -190.825,286.556c-62.761,67.928 -119.643,106.47 -170.646,115.625c-70.886,12.724 -130.291,-14.982 -178.214,-83.118c-47.924,-68.137 -79.8,-146.293 -95.628,-234.468c-6.051,-33.714 -8.374,-66.536 -6.967,-98.465c1.407,-31.93 5.081,-58.69 11.021,-80.279c5.94,-21.59 18.075,-55.892 36.405,-102.905c88.46,-213.081 183.693,-328.777 285.699,-347.088c52.732,-9.465 82.745,6.117 90.038,46.746c4.966,27.663 -4.348,73.951 -27.943,138.864c-23.594,64.912 -46.54,112.309 -68.838,142.188c-62.174,86.115 -102.154,145.493 -119.942,178.132c-17.787,32.639 -23.422,67.113 -16.905,103.42c5.587,31.121 21.912,54.96 48.977,71.517c27.064,16.557 59.183,21.5 96.354,14.827c40.63,-7.293 82.689,-30.235 126.178,-68.827c43.488,-38.591 98.236,-97.719 164.245,-177.384Z" style="fill:#8d0100;fill-rule:nonzero;"/><path d="M3082.98,1413.02l55.758,-10.009c31.075,-90.348 62.133,-155.931 93.176,-196.75c31.042,-40.819 70.336,-65.495 117.881,-74.03c47.546,-8.535 73.258,-1.996 77.137,19.615c1.862,10.374 -11.68,41.805 -40.628,94.294c-28.947,52.489 -50.137,96.001 -63.569,130.535c30.013,-1.818 56.706,-3.486 80.079,-5.005c23.374,-1.519 41.7,-2.578 54.977,-3.176c-32.826,100.478 -77.798,205.367 -134.917,314.667l-112.381,11.473c-17.089,1.729 -37.892,3.901 -62.407,6.517c-33.181,83.588 -60.233,157.822 -81.156,222.701c-20.923,64.88 -35.391,123.469 -43.403,175.77c-8.012,52.3 -8.061,100.494 -0.147,144.581c10.707,59.648 39.833,85.205 87.379,76.67c32.849,-5.897 72.714,-31.122 119.594,-75.676c46.879,-44.554 108.322,-111.13 184.326,-199.728l15.595,86.879c-187.938,295.184 -337.664,452.785 -449.18,472.803c-38.901,6.983 -72.953,-2.52 -102.157,-28.509c-29.204,-25.989 -48.073,-62.756 -56.607,-110.301c-5.742,-31.985 -5.87,-71.224 -0.385,-117.717c5.485,-46.493 17.526,-117.362 36.121,-212.609c-10.24,12.546 -19.871,24.76 -28.892,36.641c-9.022,11.881 -17.334,22.742 -24.936,32.584l-50.637,64.636l-16.06,-89.472c77.113,-92.366 162.925,-245.632 257.435,-459.799c-13.122,1.463 -25.34,2.987 -36.656,4.572c-11.316,1.585 -24.754,3.774 -40.314,6.567c-51.003,9.156 -88.419,19.441 -112.247,30.857c-9.908,4.455 -19.128,9.011 -27.662,13.666c-8.534,4.655 -14.53,7.292 -17.988,7.913c-3.457,0.621 -5.652,-1.662 -6.583,-6.849c-5.121,-28.527 4.92,-74.499 30.121,-137.916c19.837,-53.53 40.412,-94.255 61.724,-122.173c21.312,-27.918 49.6,-49.281 84.866,-64.088c35.265,-14.807 86.18,-28.185 152.743,-40.134Z" style="fill:#8d0100;fill-rule:nonzero;"/><path d="M3628.4,2057.96l5.819,32.417c9.155,51.004 28.828,88.519 59.018,112.546c30.19,24.027 65.6,32.394 106.23,25.101c42.358,-7.604 84.445,-25.42 126.26,-53.45c41.815,-28.029 82.251,-62.503 121.306,-103.422c39.055,-40.918 86.035,-94.859 140.938,-161.823l14.199,79.098c-76.581,135.102 -152.037,241.67 -226.368,319.706c-74.331,78.036 -155.585,124.968 -243.76,140.796c-76.937,13.81 -143.235,-5.074 -198.894,-56.653c-55.659,-51.578 -92.799,-129.235 -111.42,-232.971c-16.293,-90.768 -9.895,-176.91 19.197,-258.425c29.091,-81.515 84.243,-171.946 165.456,-271.295c55.613,-67.983 113.276,-122.057 172.99,-162.223c59.714,-40.165 115.072,-64.825 166.076,-73.981c40.629,-7.293 74.499,-3.78 101.608,10.538c27.108,14.319 43.999,40.064 50.672,77.236c9.776,54.461 -0.802,112.353 -31.733,173.675c-30.931,61.322 -83.335,126.052 -157.213,194.191c-73.877,68.139 -167.337,137.785 -280.381,208.939Zm-2.163,-86.612c72.37,-44.222 132.184,-93.775 179.44,-148.658c47.256,-54.883 80.382,-105.222 99.377,-151.017c18.996,-45.795 26.786,-78.201 23.373,-97.219c-3.57,-19.883 -14.431,-28.195 -32.585,-24.936c-15.56,2.793 -39.061,17.273 -70.502,43.44c-31.442,26.167 -62.23,58.463 -92.363,96.888c-30.134,38.425 -55.585,81.809 -76.354,130.153c-20.768,48.344 -30.897,98.794 -30.386,151.349Z" style="fill:#8d0100;fill-rule:nonzero;"/><path d="M5300,1579.88c-103.115,22.079 -178.877,37.463 -227.287,46.153c-74.343,13.345 -177.524,30.082 -309.543,50.211c-22.232,35.222 -49.545,76.933 -81.939,125.133c-32.395,48.2 -63.171,92.986 -92.329,134.359l-127.19,178.763c-79.196,110.587 -130.713,182.742 -154.552,216.468c-23.839,33.726 -49.694,64.913 -77.567,93.563c-27.873,28.65 -55.209,45.38 -82.007,50.19c-30.256,5.431 -47.867,-5.684 -52.833,-33.347c-5.431,-30.256 7.801,-80.817 39.696,-151.681c31.896,-70.864 70.729,-135.39 116.5,-193.575c45.771,-58.186 85.946,-90.383 120.525,-96.59c9.509,-1.707 23.684,0.21 42.525,5.751l199.12,-307.453c-31.896,1.264 -73.03,5.748 -123.402,13.451c-50.371,7.704 -84.745,10.082 -103.12,7.134c-18.376,-2.948 -29.658,-16.092 -33.848,-39.432c-6.672,-37.172 22.618,-102.661 87.873,-196.468c35.309,-51.846 70.895,-87.234 106.759,-106.164c35.864,-18.931 107.315,-38.449 214.353,-58.555c-61.554,19.972 -104.467,38.16 -128.738,54.563c-24.271,16.403 -35.608,36.508 -34.012,60.314c25.069,-4.5 48.194,-8.651 69.373,-12.453c21.179,-3.802 48.803,-8.984 82.872,-15.545c34.068,-6.562 59.238,-11.749 75.507,-15.562c116.944,-163.762 224.14,-307.26 321.59,-430.492c97.449,-123.232 202.097,-242.402 313.943,-357.511c111.847,-115.109 233.479,-224.166 364.898,-327.173c35.2,32.051 56.446,68.392 63.74,109.021c6.051,33.714 2.012,74.594 -12.117,122.638c-14.13,48.044 -45.953,139.196 -95.469,273.455c-49.516,134.259 -98.755,276.275 -147.716,426.05c24.205,-4.345 44.342,-7.737 60.412,-10.175c16.071,-2.439 33.26,-4.855 51.569,-7.249c49.274,-8.845 79.469,-13.373 90.586,-13.584c11.116,-0.211 18.07,7.464 20.863,23.024c1.242,6.916 -3.246,20.437 -13.465,40.564c-10.218,20.127 -28.498,53.747 -54.841,100.861c-26.343,47.113 -51.706,94.72 -76.087,142.82l-187.821,49.777c-67.003,208.337 -98.332,324.608 -93.987,348.813c6.362,35.442 28.129,49.828 65.301,43.155c18.153,-3.259 86.534,-54.795 205.141,-154.609l1.963,70.586c-61.265,66.321 -108.81,118.356 -142.634,156.105c-33.824,37.749 -63.393,69.38 -88.706,94.893c-25.313,25.513 -48.963,45.374 -70.951,59.583c-21.988,14.208 -45.085,23.485 -69.29,27.83c-28.527,5.121 -58.988,-3.019 -91.384,-24.419c-32.396,-21.401 -52.938,-56.306 -61.628,-104.716c-3.569,-19.882 -1.303,-49.512 6.798,-88.89c8.101,-39.378 17.554,-77.436 28.359,-114.176c10.805,-36.74 38.871,-125.21 84.197,-265.409Zm-297.912,-250.357l418.732,-83.195c34.222,-92.698 62.022,-167.735 83.4,-225.111c21.378,-57.376 44.966,-119.834 70.766,-187.374c25.8,-67.539 48.081,-124.855 66.844,-171.946c18.762,-47.092 39.325,-100.306 61.689,-159.644c-55.258,50.073 -111.037,104.701 -167.337,163.885c-56.3,59.183 -119.066,129.566 -188.3,211.148c-69.233,81.583 -130.243,156.781 -183.029,225.595c-52.787,68.815 -107.042,144.362 -162.765,226.642Z" style="fill:#8d0100;fill-rule:nonzero;"/><path d="M5878.63,1708.91l-15.13,-84.285c36.75,-63.705 63.736,-117.18 80.958,-160.426c-29.37,-4.543 -51.563,-12.606 -66.581,-24.187c-15.017,-11.582 -25.009,-31.204 -29.975,-58.866c-5.586,-31.121 0.321,-72.782 17.72,-124.982c17.399,-52.201 41.392,-102.462 71.98,-150.784c30.588,-48.322 60.356,-81.327 89.304,-99.016c11.017,-8.223 22.144,-13.344 33.382,-15.361c17.289,-3.104 27.408,3.557 30.356,19.982c2.638,14.696 -5.408,46.925 -24.137,96.687c173.114,-59.629 283.011,-93.633 329.692,-102.012c18.153,-3.259 30.998,-3.78 38.535,-1.564c16.092,5.142 31.453,21.124 46.083,47.944c14.63,26.82 24.505,54.494 29.626,83.021c3.259,18.154 -1.207,39.256 -13.398,63.306c-12.191,24.05 -34.09,59.881 -65.697,107.494c-36.972,57.498 -65.819,118 -86.543,181.505c-20.724,63.505 -28.448,109.954 -23.172,139.346c7.293,40.629 36.009,56.444 86.148,47.444c52.732,-9.466 134.744,-79.511 246.036,-210.136l15.595,86.879c-58.25,88.087 -106.836,157.932 -145.758,209.535c-38.922,51.602 -75.977,93.724 -111.165,126.363c-35.187,32.64 -68.341,51.753 -99.462,57.339c-36.307,6.518 -69.551,-4.692 -99.73,-33.629c-30.179,-28.937 -50.932,-74.958 -62.26,-138.064c-6.673,-37.172 -4.767,-81.237 5.716,-132.196c10.484,-50.96 29.091,-107.616 55.822,-169.968c26.73,-62.353 58.038,-125.304 93.924,-188.854c-23.274,9.532 -49.535,19.823 -78.782,30.873l-168.054,62.959c-34.355,116.814 -94.699,228.032 -181.033,333.653Z" style="fill:#8d0100;fill-rule:nonzero;"/><path d="M6983.43,712.865l55.758,-10.009c31.075,-90.348 62.133,-155.931 93.176,-196.75c31.042,-40.819 70.336,-65.496 117.881,-74.03c47.546,-8.535 73.258,-1.996 77.138,19.615c1.862,10.374 -11.681,41.805 -40.629,94.294c-28.947,52.489 -50.137,96.001 -63.569,130.535c30.013,-1.818 56.706,-3.486 80.08,-5.005c23.373,-1.519 41.699,-2.578 54.976,-3.176c-32.826,100.477 -77.798,205.366 -134.917,314.667l-112.38,11.472c-17.09,1.73 -37.893,3.902 -62.408,6.518c-33.181,83.588 -60.232,157.821 -81.156,222.701c-20.923,64.879 -35.391,123.469 -43.403,175.769c-8.012,52.301 -8.061,100.494 -0.147,144.582c10.707,59.648 39.833,85.204 87.379,76.67c32.849,-5.897 72.714,-31.122 119.594,-75.676c46.879,-44.554 108.322,-111.13 184.326,-199.728l15.596,86.878c-187.938,295.185 -337.665,452.786 -449.181,472.804c-38.9,6.982 -72.953,-2.521 -102.157,-28.509c-29.203,-25.989 -48.073,-62.756 -56.607,-110.302c-5.742,-31.985 -5.87,-71.224 -0.385,-117.716c5.486,-46.493 17.526,-117.363 36.121,-212.609c-10.24,12.546 -19.871,24.759 -28.892,36.64c-9.021,11.881 -17.333,22.743 -24.936,32.584l-50.637,64.637l-16.06,-89.472c77.113,-92.366 162.925,-245.633 257.436,-459.8c-13.122,1.464 -25.341,2.988 -36.657,4.573c-11.315,1.585 -24.753,3.774 -40.314,6.567c-51.003,9.155 -88.418,19.441 -112.246,30.857c-9.908,4.455 -19.129,9.01 -27.663,13.665c-8.534,4.655 -14.53,7.293 -17.987,7.914c-3.458,0.621 -5.653,-1.662 -6.584,-6.849c-5.121,-28.527 4.92,-74.499 30.121,-137.916c19.837,-53.531 40.412,-94.255 61.724,-122.173c21.312,-27.918 49.6,-49.281 84.866,-64.088c35.265,-14.808 86.18,-28.185 152.743,-40.134Z" style="fill:#8d0100;fill-rule:nonzero;"/><path d="M1752.27,2348.45c-28.749,-35.886 -67.606,-65.942 -116.571,-90.168c-48.964,-24.227 -102.207,-41.216 -159.727,-50.968c-57.52,-9.752 -116.526,-14.106 -177.016,-13.063c-179.276,5.411 -352.391,-21.96 -519.344,-82.115c-14.209,-4.588 -30.678,-16.801 -49.409,-36.639c-18.73,-19.838 -29.957,-40.131 -33.681,-60.878c-13.656,-76.072 -14.599,-154.65 -2.831,-235.732c11.769,-81.083 33.656,-146.805 65.663,-197.166c51.09,-83.233 155.03,-166.584 311.817,-250.051c156.788,-83.468 339.35,-143.901 547.685,-181.298c124.482,-22.345 222.361,-30.099 293.635,-23.263c71.274,6.837 110.48,30.138 117.618,69.904c11.638,64.834 11.777,116.563 0.418,155.187c-11.359,38.624 -26.149,65.595 -44.369,80.912c-18.22,15.316 -51.047,37.494 -98.481,66.532c-51.047,28.794 -94.807,57.172 -131.281,85.135c-36.473,27.963 -67.266,54.014 -92.379,78.153c-25.114,24.139 -41.128,36.829 -48.044,38.07c-8.645,1.552 -13.588,-1.13 -14.829,-8.046c-2.638,-14.696 8.71,-39.71 34.045,-75.042c25.335,-35.333 58.461,-68.272 99.379,-98.817c43.045,-33.604 63.947,-53.864 62.705,-60.78c-2.017,-11.238 -29.392,-12.124 -82.124,-2.658c-159.925,28.707 -305.187,69.506 -435.787,122.396c-130.6,52.889 -230.827,109.696 -300.681,170.421c-69.854,60.724 -100.436,115.291 -91.746,163.701c5.431,30.256 25.48,48.742 60.147,55.458c34.668,6.715 109.965,14.838 225.892,24.367c115.927,9.529 220.959,25.475 315.098,47.839c134.967,31.096 237.906,70.172 308.815,117.229c70.909,47.057 112.803,106.46 125.683,178.21c8.845,49.275 5.842,100.899 -9.008,154.873c-14.85,53.973 -41.459,105.82 -79.827,155.538c-38.368,49.718 -84.971,93.33 -139.808,130.836c-47.124,30.767 -107.664,62.603 -181.619,95.51c-73.956,32.906 -155.132,62.87 -243.528,89.891c-88.397,27.022 -173.657,47.904 -255.78,62.645c-151.281,27.156 -275.514,34.733 -372.7,22.732c-97.186,-12.001 -150.978,-46.961 -161.374,-104.88c-4.656,-25.933 3.65,-69.14 24.917,-129.62c21.267,-60.479 51.373,-104.03 90.318,-130.652c34.534,-21.368 68.896,-36.236 103.086,-44.605c34.191,-8.368 52.217,-7.365 54.079,3.008c0.466,2.594 -0.365,5.42 -2.493,8.479c-2.128,3.059 -4.766,5.763 -7.913,8.113c-3.148,2.349 -6.295,4.699 -9.443,7.049c-16.048,10.019 -29.125,17.943 -39.233,23.773c-10.107,5.83 -18.053,11.272 -23.839,16.326c-5.785,5.053 -8.057,11.038 -6.815,17.954c3.258,18.154 94.359,11.17 273.303,-20.952c155.603,-27.931 282.102,-56.438 379.498,-85.522c97.396,-29.083 181.492,-65.148 252.288,-108.195c70.797,-43.047 132.661,-96.091 185.591,-159.131Z" style="fill:#f00;fill-rule:nonzero;"/><path d="M2547.26,1572.64c-21.611,3.88 -43.616,-0.647 -66.015,-13.581c-22.399,-12.933 -35.848,-31.934 -40.348,-57.004c-6.828,-38.036 3.722,-83.653 31.65,-136.852c27.928,-53.198 61.342,-83.288 100.243,-90.271c25.934,-4.656 48.981,-0.539 69.141,12.35c20.16,12.889 32.955,34.462 38.386,64.718c6.673,37.172 -3.678,81.415 -31.052,132.729c-27.373,51.314 -61.375,80.618 -102.005,87.911Zm192.22,563.793l16.992,94.659c-64.456,123.11 -128.064,218.628 -190.825,286.556c-62.761,67.928 -119.644,106.47 -170.647,115.625c-70.886,12.725 -130.29,-14.981 -178.214,-83.118c-47.923,-68.137 -79.799,-146.292 -95.627,-234.467c-6.052,-33.714 -8.374,-66.536 -6.967,-98.466c1.407,-31.93 5.08,-58.69 11.02,-80.279c5.94,-21.59 18.075,-55.891 36.406,-102.905c88.459,-213.081 183.692,-328.777 285.699,-347.087c52.732,-9.466 82.745,6.116 90.038,46.746c4.966,27.662 -4.349,73.95 -27.943,138.863c-23.594,64.913 -46.541,112.309 -68.839,142.189c-62.173,86.115 -102.154,145.492 -119.941,178.131c-17.787,32.64 -23.422,67.113 -16.905,103.42c5.586,31.121 21.912,54.96 48.976,71.517c27.065,16.558 59.183,21.5 96.355,14.827c40.63,-7.293 82.689,-30.235 126.177,-68.826c43.489,-38.592 98.237,-97.72 164.245,-177.385Z" style="fill:#f00;fill-rule:nonzero;"/><path d="M3062.14,1383.85l55.758,-10.009c31.074,-90.348 62.133,-155.932 93.175,-196.751c31.043,-40.818 70.337,-65.495 117.882,-74.03c47.545,-8.534 73.258,-1.996 77.137,19.616c1.862,10.373 -11.681,41.804 -40.628,94.293c-28.948,52.489 -50.137,96.001 -63.569,130.536c30.012,-1.819 56.705,-3.487 80.079,-5.006c23.374,-1.518 41.699,-2.577 54.977,-3.176c-32.826,100.478 -77.799,205.367 -134.918,314.667l-112.38,11.473c-17.09,1.729 -37.892,3.902 -62.407,6.518c-33.181,83.587 -60.233,157.821 -81.156,222.7c-20.924,64.88 -35.391,123.47 -43.403,175.77c-8.012,52.3 -8.061,100.494 -0.147,144.581c10.707,59.648 39.833,85.205 87.378,76.67c32.85,-5.896 72.714,-31.122 119.594,-75.676c46.88,-44.554 108.322,-111.13 184.327,-199.727l15.595,86.878c-187.938,295.184 -337.665,452.785 -449.18,472.803c-38.901,6.983 -72.953,-2.52 -102.157,-28.509c-29.204,-25.989 -48.073,-62.756 -56.608,-110.301c-5.741,-31.985 -5.869,-71.224 -0.384,-117.717c5.485,-46.492 17.525,-117.362 36.121,-212.609c-10.241,12.546 -19.871,24.76 -28.893,36.641c-9.021,11.881 -17.333,22.742 -24.936,32.584l-50.636,64.636l-16.061,-89.472c77.113,-92.366 162.925,-245.632 257.436,-459.799c-13.122,1.463 -25.341,2.987 -36.656,4.572c-11.316,1.585 -24.754,3.774 -40.314,6.568c-51.003,9.155 -88.419,19.44 -112.247,30.856c-9.908,4.456 -19.129,9.011 -27.663,13.666c-8.533,4.655 -14.529,7.293 -17.987,7.913c-3.458,0.621 -5.652,-1.662 -6.583,-6.849c-5.121,-28.527 4.919,-74.499 30.121,-137.915c19.837,-53.531 40.412,-94.255 61.723,-122.174c21.312,-27.918 49.601,-49.28 84.866,-64.088c35.266,-14.807 86.18,-28.185 152.744,-40.133Z" style="fill:#f00;fill-rule:nonzero;"/><path d="M3607.57,2028.8l5.819,32.418c9.156,51.003 28.828,88.518 59.019,112.545c30.19,24.027 65.6,32.394 106.229,25.101c42.359,-7.604 84.446,-25.42 126.261,-53.449c41.815,-28.03 82.25,-62.504 121.306,-103.422c39.055,-40.919 86.034,-94.86 140.938,-161.824l14.198,79.099c-76.58,135.101 -152.036,241.67 -226.367,319.705c-74.332,78.036 -155.585,124.968 -243.76,140.796c-76.937,13.811 -143.235,-5.073 -198.894,-56.652c-55.659,-51.579 -92.799,-129.236 -111.42,-232.971c-16.294,-90.769 -9.895,-176.91 19.196,-258.425c29.091,-81.515 84.244,-171.947 165.457,-271.295c55.613,-67.984 113.276,-122.058 172.99,-162.223c59.714,-40.166 115.072,-64.826 166.075,-73.981c40.63,-7.294 74.499,-3.781 101.608,10.538c27.109,14.318 44,40.064 50.672,77.235c9.776,54.461 -0.801,112.353 -31.732,173.675c-30.932,61.322 -83.336,126.052 -157.213,194.191c-73.877,68.139 -167.338,137.785 -280.382,208.939Zm-2.162,-86.612c72.37,-44.222 132.183,-93.775 179.44,-148.658c47.256,-54.883 80.382,-105.222 99.377,-151.017c18.995,-45.795 26.786,-78.201 23.372,-97.219c-3.569,-19.883 -14.43,-28.195 -32.584,-24.936c-15.56,2.793 -39.061,17.273 -70.503,43.441c-31.441,26.167 -62.229,58.463 -92.363,96.888c-30.133,38.424 -55.584,81.809 -76.353,130.153c-20.768,48.343 -30.897,98.793 -30.386,151.348Z" style="fill:#f00;fill-rule:nonzero;"/><path d="M5279.16,1550.72c-103.115,22.078 -178.877,37.463 -227.287,46.153c-74.344,13.345 -177.525,30.082 -309.544,50.21c-22.231,35.222 -49.544,76.933 -81.939,125.133c-32.394,48.2 -63.17,92.986 -92.329,134.359l-127.189,178.764c-79.196,110.586 -130.714,182.742 -154.552,216.467c-23.839,33.726 -49.695,64.914 -77.568,93.563c-27.873,28.65 -55.208,45.38 -82.006,50.191c-30.257,5.431 -47.867,-5.685 -52.833,-33.348c-5.431,-30.256 7.801,-80.816 39.696,-151.681c31.895,-70.864 70.729,-135.389 116.5,-193.575c45.771,-58.186 85.946,-90.382 120.524,-96.589c9.509,-1.707 23.684,0.21 42.525,5.751l199.121,-307.454c-31.897,1.264 -73.031,5.748 -123.402,13.452c-50.372,7.703 -84.745,10.081 -103.121,7.133c-18.375,-2.947 -29.658,-16.091 -33.847,-39.432c-6.673,-37.172 22.618,-102.661 87.872,-196.467c35.309,-51.847 70.896,-87.235 106.76,-106.165c35.864,-18.93 107.314,-38.449 214.352,-58.555c-61.553,19.973 -104.466,38.16 -128.737,54.564c-24.271,16.403 -35.609,36.507 -34.012,60.313c25.069,-4.5 48.193,-8.651 69.373,-12.453c21.179,-3.802 48.803,-8.983 82.871,-15.545c34.069,-6.562 59.238,-11.749 75.508,-15.562c116.943,-163.762 224.14,-307.259 321.589,-430.492c97.45,-123.232 202.098,-242.402 313.944,-357.511c111.846,-115.108 233.479,-224.166 364.898,-327.172c35.199,32.051 56.446,68.391 63.739,109.021c6.052,33.714 2.013,74.593 -12.117,122.637c-14.13,48.045 -45.952,139.196 -95.468,273.455c-49.516,134.259 -98.755,276.276 -147.716,426.05c24.205,-4.345 44.342,-7.736 60.412,-10.175c16.07,-2.438 33.26,-4.855 51.569,-7.249c49.274,-8.845 79.469,-13.373 90.585,-13.583c11.116,-0.211 18.071,7.464 20.864,23.024c1.242,6.915 -3.247,20.437 -13.465,40.563c-10.218,20.127 -28.499,53.747 -54.842,100.861c-26.343,47.114 -51.705,94.721 -76.087,142.821l-187.82,49.776c-67.003,208.337 -98.333,324.608 -93.988,348.813c6.362,35.443 28.129,49.828 65.301,43.155c18.154,-3.258 86.534,-54.795 205.141,-154.609l1.963,70.587c-61.265,66.321 -108.809,118.355 -142.633,156.104c-33.825,37.749 -63.393,69.38 -88.706,94.893c-25.313,25.514 -48.963,45.374 -70.952,59.583c-21.988,14.209 -45.084,23.486 -69.289,27.83c-28.527,5.121 -58.989,-3.019 -91.384,-24.419c-32.396,-21.401 -52.939,-56.306 -61.628,-104.715c-3.57,-19.883 -1.304,-49.513 6.797,-88.891c8.101,-39.377 17.554,-77.436 28.359,-114.176c10.805,-36.74 38.871,-125.209 84.198,-265.408Zm-297.912,-250.357l418.731,-83.196c34.223,-92.697 62.023,-167.734 83.401,-225.111c21.377,-57.376 44.966,-119.834 70.766,-187.373c25.8,-67.54 48.081,-124.855 66.843,-171.947c18.763,-47.091 39.326,-100.306 61.69,-159.644c-55.258,50.073 -111.037,104.702 -167.337,163.885c-56.3,59.184 -119.067,129.567 -188.3,211.149c-69.233,81.582 -130.243,156.78 -183.03,225.595c-52.786,68.814 -107.041,144.362 -162.764,226.642Z" style="fill:#f00;fill-rule:nonzero;"/><path d="M5857.79,1679.75l-15.13,-84.285c36.75,-63.705 63.735,-117.18 80.957,-160.426c-29.369,-4.543 -51.563,-12.606 -66.58,-24.187c-15.018,-11.581 -25.009,-31.203 -29.975,-58.866c-5.586,-31.121 0.32,-72.781 17.719,-124.982c17.4,-52.2 41.393,-102.462 71.981,-150.783c30.588,-48.322 60.356,-81.328 89.304,-99.016c11.016,-8.224 22.143,-13.345 33.381,-15.362c17.29,-3.103 27.408,3.557 30.357,19.982c2.638,14.696 -5.408,46.925 -24.137,96.687c173.113,-59.628 283.01,-93.633 329.691,-102.012c18.154,-3.259 30.999,-3.78 38.535,-1.563c16.093,5.142 31.454,21.123 46.084,47.943c14.63,26.82 24.505,54.494 29.626,83.021c3.258,18.154 -1.208,39.256 -13.398,63.306c-12.191,24.05 -34.09,59.881 -65.698,107.494c-36.971,57.499 -65.819,118 -86.543,181.506c-20.724,63.505 -28.447,109.953 -23.171,139.345c7.293,40.63 36.009,56.444 86.147,47.444c52.733,-9.466 134.745,-79.511 246.036,-210.135l15.596,86.878c-58.25,88.088 -106.836,157.933 -145.759,209.535c-38.922,51.603 -75.977,93.724 -111.164,126.364c-35.188,32.639 -68.342,51.752 -99.462,57.339c-36.308,6.517 -69.551,-4.693 -99.73,-33.63c-30.179,-28.937 -50.933,-74.958 -62.261,-138.063c-6.672,-37.172 -4.767,-81.238 5.717,-132.197c10.483,-50.959 29.091,-107.615 55.821,-169.968c26.731,-62.353 58.039,-125.304 93.924,-188.854c-23.274,9.532 -49.534,19.823 -78.782,30.873l-168.054,62.959c-34.355,116.814 -94.699,228.032 -181.032,333.653Z" style="fill:#f00;fill-rule:nonzero;"/><path d="M6962.59,683.698l55.758,-10.008c31.074,-90.349 62.133,-155.932 93.175,-196.751c31.043,-40.819 70.337,-65.495 117.882,-74.03c47.545,-8.534 73.258,-1.996 77.137,19.615c1.862,10.374 -11.68,41.805 -40.628,94.294c-28.947,52.489 -50.137,96.001 -63.569,130.535c30.012,-1.818 56.705,-3.486 80.079,-5.005c23.374,-1.519 41.699,-2.577 54.977,-3.176c-32.826,100.478 -77.798,205.367 -134.918,314.667l-112.38,11.473c-17.089,1.729 -37.892,3.902 -62.407,6.518c-33.181,83.587 -60.233,157.821 -81.156,222.7c-20.923,64.88 -35.391,123.47 -43.403,175.77c-8.012,52.3 -8.061,100.494 -0.147,144.581c10.707,59.648 39.833,85.205 87.378,76.67c32.85,-5.897 72.715,-31.122 119.594,-75.676c46.88,-44.554 108.322,-111.13 184.327,-199.728l15.595,86.879c-187.938,295.184 -337.665,452.785 -449.18,472.803c-38.901,6.983 -72.953,-2.52 -102.157,-28.509c-29.204,-25.989 -48.073,-62.756 -56.608,-110.301c-5.741,-31.985 -5.869,-71.224 -0.384,-117.717c5.485,-46.493 17.525,-117.362 36.121,-212.609c-10.241,12.546 -19.871,24.76 -28.893,36.641c-9.021,11.881 -17.333,22.742 -24.935,32.584l-50.637,64.636l-16.061,-89.472c77.113,-92.366 162.925,-245.632 257.436,-459.799c-13.122,1.463 -25.341,2.987 -36.656,4.572c-11.316,1.585 -24.754,3.774 -40.314,6.567c-51.003,9.156 -88.419,19.441 -112.247,30.857c-9.908,4.456 -19.129,9.011 -27.662,13.666c-8.534,4.655 -14.53,7.293 -17.988,7.913c-3.458,0.621 -5.652,-1.662 -6.583,-6.849c-5.121,-28.527 4.919,-74.499 30.121,-137.916c19.837,-53.53 40.412,-94.255 61.724,-122.173c21.311,-27.918 49.6,-49.281 84.866,-64.088c35.265,-14.807 86.179,-28.185 152.743,-40.134Z" style="fill:#f00;fill-rule:nonzero;"/><g><g><path d="M1369.55,3492.37c-4.11,-46.546 -17.066,-91.34 -38.504,-133.133c-43.304,-84.412 -116.116,-146.842 -205.226,-176.027c-0.739,-0.243 -1.496,-0.485 -2.235,-0.727c-90.86,-29.102 -187.557,-21.123 -272.28,22.464c-84.703,43.583 -147.174,117.531 -175.918,208.23c-28.558,90.132 -20.513,185.909 22.663,269.68c43.146,83.721 116.523,146.068 206.654,175.582l0.16,0.053c66.034,21.599 136.244,23.58 203.03,5.742l-14.513,-53.638c-56.316,15.044 -115.54,13.358 -171.266,-4.864c-0.046,-0.016 -0.083,-0.027 -0.129,-0.043c-156.139,-51.138 -242.938,-219.642 -193.491,-375.683c24.248,-76.536 76.964,-138.929 148.429,-175.701c71.483,-36.778 153.071,-43.511 229.73,-18.957c0.627,0.2 1.248,0.403 1.879,0.61c75.027,24.572 136.397,77.243 172.938,148.482c37.403,72.908 44.09,155.509 18.843,232.596l-3.26,9.953c-14.886,45.452 -64.106,70.27 -109.715,55.332c-45.61,-14.938 -70.611,-64.065 -55.725,-109.517l54.639,-166.826l-52.941,-17.339l-8.726,26.643c-14.792,-18.859 -35.14,-33.709 -59.609,-41.723c-65.68,-21.512 -136.556,14.233 -157.99,79.678l-19.005,58.026c-21.435,65.445 14.563,136.193 80.243,157.704c39.866,13.057 81.638,5.017 113.116,-17.946c14.976,38.451 46.445,70.206 88.72,84.052c74.805,24.5 155.521,-16.207 179.934,-90.745l3.26,-9.952c15.072,-46.019 20.553,-93.798 16.295,-142.006Zm-296.276,79.58c-11.908,36.36 -51.282,56.217 -87.772,44.266c-36.49,-11.952 -56.488,-51.254 -44.58,-87.614l19.005,-58.026c11.909,-36.36 51.283,-56.217 87.773,-44.266c36.49,11.951 56.488,51.254 44.579,87.613l-19.005,58.027Z" style="fill:#8d0100;fill-rule:nonzero;"/><path d="M7163.8,2374.15l-6069.26,1439.36l12.499,52.705l6069.26,-1439.36l-12.499,-52.704Z" style="fill:#8d0100;"/></g><path d="M7289.05,2364.68l-112.871,59.462l-13.8,-44.299l126.671,-15.163Z" style="fill:#8d0100;"/></g><g><g><path d="M1352.88,3467.37c-4.11,-46.546 -17.066,-91.34 -38.504,-133.133c-43.304,-84.412 -116.116,-146.842 -205.226,-176.027c-0.739,-0.243 -1.495,-0.485 -2.235,-0.727c-90.86,-29.102 -187.557,-21.123 -272.279,22.464c-84.704,43.583 -147.175,117.531 -175.919,208.23c-28.558,90.132 -20.513,185.909 22.663,269.68c43.146,83.721 116.524,146.068 206.654,175.582l0.16,0.053c66.035,21.599 136.245,23.58 203.031,5.742l-14.513,-53.638c-56.317,15.044 -115.541,13.358 -171.267,-4.864c-0.046,-0.016 -0.082,-0.027 -0.129,-0.043c-156.139,-51.138 -242.937,-219.642 -193.491,-375.683c24.249,-76.536 76.964,-138.929 148.429,-175.701c71.484,-36.778 153.072,-43.511 229.73,-18.957c0.628,0.2 1.248,0.403 1.879,0.61c75.027,24.572 136.398,77.243 172.939,148.482c37.403,72.908 44.09,155.509 18.842,232.596l-3.26,9.953c-14.886,45.452 -64.105,70.27 -109.715,55.332c-45.61,-14.938 -70.611,-64.065 -55.724,-109.517l54.639,-166.826l-52.941,-17.339l-8.727,26.643c-14.792,-18.859 -35.139,-33.709 -59.609,-41.723c-65.679,-21.512 -136.556,14.233 -157.99,79.678l-19.005,58.026c-21.434,65.445 14.564,136.193 80.243,157.704c39.866,13.057 81.638,5.017 113.116,-17.946c14.976,38.451 46.446,70.206 88.721,84.052c74.805,24.5 155.521,-16.207 179.933,-90.745l3.26,-9.952c15.072,-46.019 20.554,-93.798 16.295,-142.006Zm-296.275,79.58c-11.909,36.36 -51.283,56.217 -87.773,44.266c-36.49,-11.952 -56.488,-51.254 -44.579,-87.614l19.005,-58.026c11.908,-36.36 51.282,-56.217 87.772,-44.266c36.49,11.951 56.488,51.254 44.58,87.613l-19.005,58.027Z" style="fill:#f00;fill-rule:nonzero;"/><path d="M7147.13,2349.15l-6069.26,1439.36l12.499,52.705l6069.26,-1439.36l-12.499,-52.704Z" style="fill:#f00;"/></g><path d="M7272.39,2339.68l-112.871,59.462l-13.801,-44.299l126.672,-15.163Z" style="fill:#f00;"/></g><rect x="1087.5" y="3300" width="8.333" height="20.833" style="fill:#f00;"/></svg>